<?xml version="1.0" encoding="utf-8"?>
<!-- Generator: Adobe Illustrator 16.0.4, SVG Export Plug-In . SVG Version: 6.00 Build 0)  -->
<!DOCTYPE svg PUBLIC "-//W3C//DTD SVG 1.1//EN" "http://www.w3.org/Graphics/SVG/1.1/DTD/svg11.dtd">
<svg version="1.1" id="Layer_1" xmlns="http://www.w3.org/2000/svg" xmlns:xlink="http://www.w3.org/1999/xlink" x="0px" y="0px"
	 width="500px" height="500px" viewBox="0 0 500 500" enable-background="new 0 0 500 500" xml:space="preserve">
<path fill="#639E42" d="M250,494.67C115.06,494.67,5.33,384.94,5.33,250C5.33,115.06,115.06,5.33,250,5.33
	c134.94,0,244.67,109.73,244.67,244.67C494.67,384.94,384.94,494.67,250,494.67L250,494.67z M250,13.48
	c-130.49,0-237.26,106.02-237.26,237.26S118.77,488,250,488c130.49,0,237.26-106.02,237.26-237.26S380.49,13.48,250,13.48L250,13.48
	z"/>
<path d="M1084.1,317.12c-18.2,0-33-14.8-33-33c0-18.2,14.8-33,33-33s33,14.8,33,33C1117.1,302.31,1102.3,317.12,1084.1,317.12
	 M1084.1,252.16c-17.62,0-31.95,14.33-31.95,31.95c0,17.62,14.33,31.95,31.95,31.95s31.95-14.33,31.95-31.95
	C1116.05,266.5,1101.72,252.16,1084.1,252.16"/>
<path fill="#010101" d="M1092.72,295.63c0.39-0.39,1.02-0.39,1.41,0l5.73,5.73v-17.79c0-0.1-0.02-0.2-0.04-0.29l-2.86,1.97
	l-12.06,8.29c-0.43,0.37-1.14,0.37-1.58,0l-12.07-8.29l-2.86-1.97c-0.03,0.09-0.04,0.19-0.04,0.29v17.71l5.65-5.65
	c0.39-0.39,1.02-0.39,1.41,0c0.39,0.39,0.39,1.02,0,1.41l-5.76,5.76h28.84l-5.76-5.76C1092.33,296.65,1092.33,296.02,1092.72,295.63
	"/>
<path fill="#010101" d="M1084.89,290.33l12.06-8.29v-14.82c0-0.59-0.48-1.07-1.07-1.07h-23.57c-0.59,0-1.07,0.48-1.07,1.07v14.82
	l12.06,8.29C1083.75,290.7,1084.46,290.7,1084.89,290.33 M1083,285.78v-1.38c-2.16-0.38-3.31-1.69-3.32-1.7
	c-0.17-0.21-0.18-0.5-0.03-0.71l0.95-1.25c0.08-0.12,0.23-0.2,0.39-0.21l0.06,0c0.14,0,0.28,0.06,0.38,0.16l0.01,0.01
	c0.31,0.27,1.42,1.16,2.74,1.16c0.78,0,1.61-0.39,1.61-1.25c0-0.7-1-1.1-2.16-1.56c-1.65-0.65-3.9-1.54-3.9-4.04
	c0-1.77,1.3-3.22,3.25-3.68v-1.44c0-0.31,0.25-0.56,0.56-0.56h1.24c0.32,0,0.56,0.25,0.56,0.56v1.39c1.74,0.27,2.71,1.2,2.82,1.31
	c0.18,0.2,0.21,0.46,0.09,0.67l-0.74,1.34c-0.09,0.16-0.24,0.27-0.42,0.28c-0.01,0-0.05,0.01-0.08,0.01c-0.12,0-0.24-0.04-0.35-0.12
	c-0.03-0.03-1.06-0.94-2.34-0.94c-1.01,0-1.71,0.47-1.71,1.15c0,0.79,1.04,1.19,2.25,1.66c1.69,0.65,3.79,1.46,3.79,3.87
	c0,1.94-1.32,3.49-3.3,3.91v1.39c0,0.32-0.25,0.56-0.56,0.56h-1.24C1083.25,286.35,1083,286.09,1083,285.78"/>
<path fill="#639E42" d="M312.05,334.04c2.81-2.81,7.36-2.81,10.16,0l41.16,41.16V247.38c0-0.72-0.13-1.42-0.32-2.08l-20.58,14.13
	L255.77,319c-3.12,2.62-8.22,2.62-11.34,0l-86.71-59.57l-20.57-14.13c-0.2,0.66-0.32,1.35-0.32,2.08v127.24l40.58-40.58
	c2.81-2.81,7.36-2.81,10.16,0c2.81,2.81,2.81,7.35,0,10.16l-41.41,41.41h207.29l-41.41-41.41
	C309.24,341.39,309.24,336.85,312.05,334.04"/>
<path fill="#639E42" d="M255.77,295.96l86.7-59.57V129.92c0-4.22-3.46-7.68-7.69-7.68H165.42c-4.23,0-7.69,3.46-7.69,7.68V236.4
	l86.69,59.57C247.55,298.59,252.66,298.59,255.77,295.96 M242.16,263.29v-9.94c-15.52-2.74-23.76-12.16-23.85-12.25
	c-1.24-1.5-1.32-3.59-0.19-5.09l6.83-8.96c0.58-0.83,1.63-1.4,2.83-1.54l0.44-0.02c1.04,0,2.01,0.41,2.7,1.14l0.08,0.06
	c2.22,1.96,10.2,8.34,19.7,8.34c5.59,0,11.59-2.81,11.59-9c0-5.05-7.17-7.91-15.49-11.24c-11.84-4.67-27.99-11.05-27.99-29.07
	c0-12.7,9.32-23.16,23.36-26.45v-10.35c0-2.23,1.81-4.04,4.04-4.04h8.93c2.27,0,4.04,1.78,4.04,4.04v9.97
	c12.53,1.92,19.5,8.59,20.28,9.38c1.29,1.42,1.52,3.33,0.64,4.85l-5.34,9.63c-0.65,1.17-1.75,1.91-3.01,2.03
	c-0.08,0.03-0.34,0.06-0.6,0.06c-0.9,0-1.75-0.3-2.54-0.89c-0.21-0.19-7.65-6.76-16.84-6.76c-7.25,0-12.31,3.4-12.31,8.27
	c0,5.69,7.5,8.59,16.19,11.95c12.16,4.69,27.23,10.51,27.23,27.83c0,13.95-9.46,25.05-23.7,28.06v9.99c0,2.27-1.78,4.04-4.04,4.04
	h-8.93C243.97,267.33,242.16,265.52,242.16,263.29"/>
</svg>
